<svg id="svg" xmlns="http://www.w3.org/2000/svg" xmlns:xlink="http://www.w3.org/1999/xlink" width="400" height="459.81308411214957" viewBox="0, 0, 400,459.81308411214957"><g id="svgg"><path id="path0" d="M191.851 4.339 C 179.003 11.595,180.316 6.018,180.597 52.149 L 180.841 92.056 182.856 92.343 C 184.120 92.523,194.194 87.217,209.916 78.091 C 238.218 61.661,236.445 62.181,245.817 67.566 C 249.660 69.773,271.308 82.242,293.925 95.273 C 316.542 108.304,341.881 122.899,350.234 127.707 C 358.586 132.515,372.353 140.444,380.826 145.327 C 389.298 150.210,396.643 154.206,397.148 154.206 C 400.802 154.206,401.273 117.631,397.664 114.113 C 396.034 112.524,384.031 105.474,329.907 74.315 C 323.481 70.616,300.561 57.364,278.972 44.867 C 225.990 14.196,224.319 13.230,213.084 6.791 C 199.829 -0.806,200.769 -0.698,191.851 4.339 M217.698 160.399 C 182.213 180.623,181.575 181.041,183.417 182.883 C 184.095 183.560,211.970 199.915,245.362 219.226 C 310.508 256.900,309.550 256.297,307.443 258.329 C 306.143 259.582,283.351 272.971,263.025 284.421 C 250.856 291.276,254.447 292.276,219.617 272.333 C 202.916 262.770,184.626 252.328,178.972 249.129 C 173.318 245.930,158.808 237.631,146.729 230.687 C 120.479 215.596,122.345 216.352,117.469 218.833 C 109.896 222.685,49.985 257.155,48.721 258.387 C 46.802 260.258,47.751 261.094,59.146 267.567 C 64.910 270.841,91.075 285.932,117.290 301.102 C 143.505 316.273,177.150 335.721,192.056 344.320 C 206.963 352.919,219.754 360.533,220.480 361.239 C 222.873 363.564,222.165 364.039,182.305 386.817 C 162.732 398.002,163.271 397.783,159.813 395.937 C 156.133 393.972,120.288 373.340,108.411 366.351 C 102.500 362.873,89.673 355.429,79.907 349.811 C 70.140 344.192,52.477 333.979,40.654 327.116 C 4.758 306.276,3.408 305.534,1.913 305.821 C -0.831 306.348,-0.673 342.976,2.084 345.526 C 4.260 347.538,8.343 349.952,51.869 374.962 C 65.748 382.937,98.972 402.054,125.701 417.445 C 196.767 458.365,198.106 459.112,200.371 459.112 C 201.514 459.112,217.563 450.374,236.037 439.695 C 254.511 429.015,273.621 417.970,278.505 415.150 C 283.388 412.330,300.841 402.223,317.290 392.691 C 333.738 383.158,352.453 372.346,358.879 368.664 C 390.845 350.344,395.934 347.327,397.664 345.667 C 399.833 343.585,401.101 233.122,399.014 227.968 C 398.266 226.119,389.661 220.720,361.870 204.659 C 341.977 193.163,311.192 175.353,293.458 165.082 C 275.724 154.811,259.533 145.433,257.477 144.243 C 251.772 140.940,252.006 140.846,217.698 160.399 " stroke="none" fill="#182338"  fill-rule="evenodd"></path></g></svg>