<svg id="svg" xmlns="http://www.w3.org/2000/svg" xmlns:xlink="http://www.w3.org/1999/xlink" width="400" height="165.83941605839416" viewBox="0, 0, 400,165.83941605839416"><g id="svgg"><path id="path0" d="M161.460 82.920 L 161.460 165.839 162.920 165.839 L 164.380 165.839 164.380 82.920 L 164.380 0.000 162.920 0.000 L 161.460 0.000 161.460 82.920 M59.936 13.326 C 55.922 15.593,56.332 13.851,56.420 28.262 L 56.496 40.730 57.126 40.820 C 57.521 40.876,60.668 39.218,65.579 36.367 C 74.421 31.234,73.867 31.397,76.795 33.079 C 77.996 33.769,84.759 37.664,91.825 41.735 C 98.891 45.806,106.807 50.366,109.416 51.868 C 112.026 53.370,116.326 55.847,118.973 57.372 C 121.620 58.898,123.915 60.146,124.072 60.146 C 125.214 60.146,125.361 48.720,124.234 47.621 C 123.724 47.124,119.975 44.922,103.066 35.187 C 101.058 34.032,93.898 29.892,87.153 25.988 C 70.601 16.406,70.079 16.104,66.569 14.092 C 62.428 11.719,62.722 11.753,59.936 13.326 M198.540 17.455 C 198.540 18.511,198.597 18.575,199.857 18.947 C 203.541 20.035,203.358 18.688,203.358 44.672 C 203.358 70.247,203.566 68.680,200.000 69.866 C 198.754 70.280,198.681 70.365,198.596 71.502 L 198.507 72.701 217.741 72.701 L 236.976 72.701 237.325 66.058 C 237.518 62.405,237.673 59.055,237.670 58.613 C 237.664 57.811,237.662 57.810,235.529 57.810 L 233.394 57.810 232.698 60.219 C 230.428 68.085,229.557 68.609,218.759 68.612 L 211.387 68.613 211.387 56.934 L 211.387 45.255 216.360 45.255 C 223.072 45.255,224.043 45.740,225.278 49.708 L 225.800 51.387 227.791 51.387 L 229.781 51.387 229.781 43.358 L 229.781 35.328 227.783 35.328 L 225.786 35.328 225.253 37.088 C 224.095 40.913,222.972 41.442,215.985 41.453 L 211.387 41.460 211.387 30.803 L 211.387 20.146 218.613 20.153 C 229.217 20.163,229.776 20.425,232.155 26.496 L 233.099 28.905 235.236 28.905 L 237.372 28.905 237.372 22.628 L 237.372 16.350 217.956 16.350 L 198.540 16.350 198.540 17.455 M247.007 17.472 C 247.007 18.536,247.070 18.613,248.227 18.959 C 251.959 20.077,251.787 19.002,251.907 41.898 C 252.046 68.158,252.022 68.362,248.732 69.687 C 247.217 70.297,247.150 70.371,247.064 71.512 L 246.974 72.701 255.766 72.701 L 264.559 72.701 264.469 71.483 C 264.385 70.339,264.305 70.240,263.164 69.861 C 259.977 68.803,259.858 68.287,259.856 55.547 L 259.854 45.255 261.830 45.255 C 264.899 45.255,265.078 45.437,271.873 55.467 C 280.841 68.704,281.151 69.484,277.737 70.210 C 276.862 70.396,276.788 70.501,276.788 71.556 L 276.788 72.701 285.985 72.701 L 295.182 72.701 295.182 71.524 C 295.182 70.655,295.049 70.307,294.672 70.196 C 291.007 69.116,290.087 68.059,279.811 53.123 C 271.601 41.188,271.526 41.066,272.063 40.463 C 272.362 40.128,275.813 36.253,279.733 31.851 C 283.654 27.449,287.224 23.419,287.666 22.896 C 288.859 21.486,291.852 19.329,293.161 18.937 C 294.235 18.615,294.307 18.524,294.307 17.472 L 294.307 16.350 285.255 16.350 L 276.204 16.350 276.204 17.486 C 276.204 18.542,276.273 18.634,277.180 18.804 C 281.897 19.689,280.166 24.284,271.427 34.073 C 266.102 40.037,264.166 41.440,261.241 41.453 L 259.854 41.460 259.854 32.392 C 259.854 20.745,260.067 19.929,263.371 18.940 C 264.455 18.615,264.526 18.526,264.526 17.472 L 264.526 16.350 255.766 16.350 L 247.007 16.350 247.007 17.472 M298.686 17.472 C 298.686 18.526,298.756 18.615,299.841 18.940 C 303.530 20.045,303.354 18.520,303.356 49.402 C 303.358 83.179,303.714 81.563,295.544 84.843 C 295.076 85.031,296.988 88.601,297.523 88.539 C 301.390 88.085,307.742 83.717,309.475 80.320 C 311.385 76.576,311.342 77.246,311.519 48.175 C 311.635 28.944,311.771 21.593,312.017 21.168 C 312.611 20.143,313.687 19.336,314.964 18.960 C 316.145 18.611,316.204 18.540,316.204 17.472 L 316.204 16.350 307.445 16.350 L 298.686 16.350 298.686 17.472 M325.255 17.472 C 325.255 18.526,325.326 18.615,326.410 18.940 C 330.082 20.040,329.985 19.297,329.873 45.401 C 329.765 70.752,330.103 68.715,325.766 70.175 C 325.393 70.300,325.255 70.663,325.255 71.524 L 325.255 72.701 344.380 72.701 C 363.200 72.701,363.504 72.692,363.504 72.127 C 363.504 71.421,364.036 61.801,364.204 59.477 L 364.326 57.787 362.122 57.871 L 359.919 57.956 358.982 60.920 C 356.664 68.256,356.033 68.613,345.411 68.613 L 337.810 68.613 337.810 56.912 L 337.810 45.210 343.285 45.306 C 350.038 45.424,351.142 46.074,352.003 50.438 L 352.190 51.387 354.343 51.387 L 356.496 51.387 356.496 43.358 L 356.496 35.328 354.343 35.328 L 352.190 35.328 352.003 36.277 C 351.154 40.579,349.931 41.287,343.139 41.410 L 337.810 41.506 337.810 30.826 L 337.810 20.146 345.182 20.148 C 353.261 20.149,354.220 20.289,355.826 21.695 C 356.846 22.588,358.818 26.245,359.280 28.102 C 359.475 28.888,359.526 28.905,361.637 28.905 L 363.796 28.905 363.796 22.628 L 363.796 16.350 344.526 16.350 L 325.255 16.350 325.255 17.472 M68.011 62.081 C 56.925 68.399,56.726 68.530,57.301 69.105 C 57.513 69.317,66.221 74.426,76.653 80.459 C 97.005 92.229,96.706 92.040,96.048 92.675 C 95.642 93.066,88.521 97.249,82.171 100.826 C 78.370 102.968,79.491 103.280,68.610 97.050 C 63.393 94.062,57.679 90.800,55.912 89.801 C 54.146 88.802,49.613 86.209,45.839 84.039 C 37.639 79.325,38.222 79.561,36.698 80.336 C 34.333 81.539,15.616 92.308,15.221 92.693 C 14.621 93.278,14.918 93.539,18.478 95.561 C 20.279 96.584,28.453 101.298,36.642 106.038 C 44.832 110.777,55.343 116.853,60.000 119.539 C 64.657 122.226,68.653 124.604,68.880 124.825 C 69.628 125.551,69.406 125.700,56.954 132.816 C 50.839 136.310,51.007 136.242,49.927 135.665 C 48.777 135.051,37.579 128.606,33.869 126.422 C 32.022 125.335,28.015 123.010,24.964 121.255 C 21.912 119.499,16.394 116.309,12.701 114.165 C 1.486 107.654,1.065 107.422,0.598 107.512 C -0.260 107.677,-0.210 119.120,0.651 119.916 C 1.331 120.545,2.606 121.299,16.204 129.112 C 20.540 131.604,30.920 137.576,39.270 142.384 C 61.472 155.168,61.890 155.401,62.598 155.401 C 62.955 155.401,67.969 152.672,73.740 149.335 C 79.512 145.999,85.482 142.548,87.007 141.667 C 88.533 140.786,93.985 137.629,99.124 134.651 C 104.263 131.673,110.109 128.295,112.117 127.145 C 122.103 121.421,123.693 120.479,124.234 119.960 C 124.911 119.310,125.307 84.800,124.656 83.190 C 124.422 82.612,121.734 80.926,113.051 75.908 C 106.837 72.317,97.219 66.753,91.679 63.544 C 86.139 60.335,81.080 57.405,80.438 57.034 C 78.656 56.002,78.729 55.972,68.011 62.081 M199.708 99.308 C 199.708 99.630,200.076 99.883,200.792 100.052 C 202.273 100.403,202.386 101.104,202.278 109.281 C 202.183 116.416,202.169 116.482,200.657 116.492 C 200.227 116.495,200.000 116.673,200.001 117.007 C 200.001 117.500,213.661 117.854,214.095 117.372 C 214.595 116.818,214.521 112.701,214.012 112.701 C 213.466 112.701,213.338 112.946,212.994 114.658 C 212.891 115.173,212.585 115.658,212.315 115.737 C 211.017 116.114,208.864 116.252,207.150 116.069 L 205.255 115.866 205.255 112.240 L 205.255 108.613 207.372 108.617 C 210.435 108.623,210.773 108.762,210.988 110.108 C 211.414 112.770,212.116 111.490,212.128 108.029 C 212.138 105.135,212.088 104.818,211.617 104.818 C 211.284 104.818,211.095 105.036,211.095 105.421 C 211.095 106.926,210.671 107.153,207.873 107.153 L 205.255 107.153 205.255 103.814 L 205.255 100.474 206.587 100.274 C 209.928 99.773,212.555 100.557,212.555 102.054 C 212.555 102.871,212.667 103.066,213.139 103.066 C 213.601 103.066,213.724 102.869,213.730 102.117 C 213.733 101.595,213.850 100.679,213.989 100.082 C 214.322 98.646,214.561 98.688,206.496 98.760 C 200.372 98.814,199.708 98.868,199.708 99.308 M262.482 99.340 C 262.482 99.727,262.720 99.854,263.445 99.854 C 265.106 99.854,265.109 99.870,265.109 108.175 C 265.109 116.480,265.106 116.496,263.445 116.496 C 262.722 116.496,262.482 116.624,262.482 117.007 C 262.482 117.469,262.864 117.518,266.423 117.518 C 269.983 117.518,270.365 117.469,270.365 117.007 C 270.365 116.646,270.130 116.495,269.562 116.492 C 268.003 116.483,267.891 116.226,267.785 112.387 C 267.666 108.081,267.236 108.007,272.804 113.254 L 277.253 117.446 279.356 117.487 C 281.599 117.531,282.313 116.939,280.748 116.334 C 280.062 116.068,270.657 107.528,270.657 107.170 C 270.657 106.258,278.623 99.879,279.781 99.864 C 280.349 99.857,280.584 99.704,280.584 99.339 C 280.584 98.890,280.285 98.824,278.248 98.824 C 276.479 98.824,275.912 98.920,275.912 99.220 C 275.912 99.654,269.086 106.739,268.217 107.208 C 267.699 107.486,267.679 107.336,267.779 103.958 C 267.892 100.127,268.005 99.867,269.562 99.858 C 270.140 99.855,270.365 99.706,270.365 99.327 C 270.365 98.844,270.033 98.801,266.423 98.813 C 262.859 98.824,262.482 98.874,262.482 99.340 M312.175 99.328 C 311.652 99.852,311.752 101.158,312.359 101.707 C 313.817 103.026,315.687 101.323,314.734 99.543 C 314.388 98.895,312.746 98.758,312.175 99.328 M320.803 101.237 L 319.708 101.685 319.708 103.816 L 319.708 105.948 318.686 106.317 C 318.124 106.520,317.664 106.857,317.664 107.066 C 317.664 107.305,318.043 107.445,318.686 107.445 L 319.708 107.445 319.708 111.838 C 319.708 116.113,319.727 116.250,320.425 116.948 C 321.543 118.065,323.966 117.982,325.111 116.786 C 326.185 115.665,325.795 115.034,324.388 115.617 C 322.673 116.327,322.336 115.601,322.336 111.196 L 322.336 107.445 324.088 107.445 L 325.839 107.445 325.839 106.569 L 325.839 105.693 324.069 105.693 L 322.299 105.693 322.362 103.300 C 322.432 100.661,322.380 100.593,320.803 101.237 M217.592 105.221 C 215.201 105.920,214.554 106.861,216.465 106.861 C 217.752 106.861,217.817 107.076,217.776 111.192 C 217.728 115.860,217.608 116.327,216.422 116.442 C 215.764 116.505,215.475 116.684,215.475 117.026 C 215.475 117.460,215.887 117.518,218.978 117.518 C 222.120 117.518,222.482 117.466,222.482 117.007 C 222.482 116.639,222.247 116.496,221.642 116.496 C 220.240 116.496,220.088 116.020,220.195 111.959 C 220.304 107.823,220.664 107.119,222.885 106.703 C 225.622 106.189,226.356 107.634,226.227 113.285 L 226.131 117.518 228.540 117.518 C 231.114 117.518,232.276 116.661,230.000 116.442 L 229.051 116.350 228.905 111.825 C 228.810 108.871,228.626 107.066,228.376 106.627 C 227.174 104.519,223.414 104.109,221.366 105.862 L 220.146 106.907 220.146 105.716 C 220.146 105.061,220.047 104.543,219.927 104.564 C 219.807 104.586,218.756 104.881,217.592 105.221 M296.424 105.240 C 294.008 105.924,293.379 106.861,295.336 106.861 L 296.365 106.861 296.285 111.606 L 296.204 116.350 295.255 116.442 C 294.596 116.505,294.307 116.684,294.307 117.026 C 294.307 117.460,294.719 117.518,297.811 117.518 C 300.905 117.518,301.314 117.461,301.314 117.025 C 301.314 116.666,301.016 116.507,300.219 116.441 L 299.124 116.350 299.042 112.625 C 298.944 108.158,299.717 106.575,302.000 106.570 C 304.561 106.565,305.249 108.150,305.035 113.560 L 304.879 117.518 307.330 117.518 C 309.470 117.518,309.781 117.453,309.781 117.007 C 309.781 116.637,309.545 116.496,308.922 116.496 C 307.702 116.496,307.648 116.293,307.607 111.558 C 307.582 108.712,307.446 107.076,307.197 106.627 C 306.023 104.510,302.118 104.093,300.147 105.873 L 298.978 106.929 298.978 105.891 C 298.978 104.547,298.922 104.532,296.424 105.240 M313.869 104.818 C 313.628 104.973,312.675 105.251,311.752 105.435 C 309.769 105.830,309.315 106.751,311.022 106.916 L 311.971 107.007 312.052 111.511 C 312.138 116.290,312.086 116.483,310.730 116.492 C 310.301 116.495,310.073 116.673,310.073 117.007 C 310.073 117.464,310.428 117.518,313.431 117.518 C 316.984 117.518,318.059 116.991,315.839 116.338 L 314.891 116.058 314.847 110.375 C 314.804 104.747,314.720 104.269,313.869 104.818 M329.621 104.965 C 329.051 105.166,328.032 105.424,327.358 105.538 C 325.633 105.829,325.564 106.861,327.270 106.861 L 328.408 106.861 328.611 108.886 C 328.858 111.347,328.515 115.977,328.064 116.273 C 327.884 116.391,327.376 116.489,326.934 116.492 C 326.366 116.495,326.131 116.646,326.131 117.007 C 326.131 117.468,326.507 117.518,329.927 117.518 C 333.347 117.518,333.723 117.468,333.723 117.007 C 333.723 116.624,333.482 116.496,332.759 116.496 C 331.264 116.496,331.095 116.125,331.095 112.832 C 331.095 109.327,331.426 108.175,332.609 107.563 C 333.505 107.100,334.891 107.564,334.891 108.328 C 334.891 109.153,335.713 108.474,335.871 107.518 C 336.287 105.001,336.208 104.818,334.699 104.818 C 333.491 104.818,333.216 104.949,332.218 105.998 L 331.095 107.178 331.095 106.015 C 331.095 104.603,330.946 104.497,329.621 104.965 M233.684 105.378 C 232.366 106.181,231.825 107.106,231.825 108.551 C 231.825 110.810,232.544 111.437,236.071 112.255 C 239.159 112.971,239.992 114.260,238.352 115.780 C 236.660 117.348,232.993 116.342,232.993 114.311 C 232.993 112.267,231.921 112.957,231.751 115.109 C 231.569 117.429,231.606 117.460,234.707 117.608 C 238.641 117.796,240.606 116.797,241.164 114.325 C 241.735 111.791,240.815 110.770,237.206 109.933 C 233.853 109.155,232.921 107.941,234.638 106.591 C 236.120 105.425,239.124 106.288,239.124 107.879 C 239.124 108.407,239.281 108.613,239.681 108.613 C 240.750 108.613,240.670 105.488,239.591 105.112 C 238.109 104.596,234.715 104.749,233.684 105.378 M245.314 105.600 C 243.886 106.336,243.796 106.449,243.796 107.498 C 243.796 108.937,244.738 109.095,245.212 107.736 C 245.982 105.529,249.790 106.071,250.393 108.473 C 250.641 109.462,250.660 109.451,247.776 110.081 C 243.958 110.915,242.911 111.904,242.929 114.657 C 242.950 117.754,246.294 118.814,249.155 116.629 L 250.511 115.594 250.511 116.556 L 250.511 117.518 252.701 117.518 C 255.047 117.518,255.937 116.779,254.046 116.400 L 253.202 116.232 253.088 111.765 C 253.014 108.879,252.841 107.061,252.600 106.627 C 251.518 104.682,248.046 104.193,245.314 105.600 M285.401 105.449 C 281.514 107.465,280.662 113.447,283.840 116.404 C 286.106 118.512,292.295 118.003,292.996 115.651 C 293.229 114.870,293.217 114.871,290.800 115.793 C 288.359 116.724,285.744 115.483,285.014 113.046 C 284.457 111.186,284.361 111.241,288.139 111.241 C 293.160 111.241,293.431 111.160,293.431 109.660 C 293.431 105.732,289.167 103.496,285.401 105.449 M339.708 105.611 C 338.406 106.336,338.238 106.542,338.158 107.518 C 338.035 109.002,338.950 109.057,339.642 107.607 C 340.590 105.618,343.781 105.998,344.705 108.210 C 345.247 109.507,345.321 109.441,342.728 109.967 C 338.586 110.809,337.226 111.988,337.226 114.738 C 337.226 117.671,340.737 118.739,343.484 116.642 C 345.117 115.396,345.109 115.396,345.109 116.569 L 345.109 117.518 347.153 117.518 C 348.905 117.518,349.197 117.445,349.197 117.007 C 349.197 116.696,348.975 116.496,348.630 116.496 C 347.714 116.496,347.599 115.995,347.445 111.319 L 347.299 106.871 346.350 105.923 C 344.969 104.543,341.889 104.398,339.708 105.611 M289.126 106.298 C 290.016 106.704,290.455 107.433,290.689 108.892 L 290.878 110.073 287.775 110.073 C 284.387 110.073,284.459 110.120,284.975 108.261 C 285.503 106.363,287.350 105.489,289.126 106.298 M250.511 112.358 C 250.511 115.285,247.415 117.119,245.844 115.122 C 244.463 113.366,246.902 110.927,250.292 110.673 C 250.412 110.664,250.511 111.422,250.511 112.358 M345.109 112.205 C 345.109 114.798,342.049 116.933,340.431 115.468 C 338.939 114.118,339.997 112.083,342.628 111.246 C 345.137 110.447,345.109 110.436,345.109 112.205 M199.416 131.185 C 199.416 131.396,199.970 131.689,200.657 131.842 L 201.898 132.117 202.079 134.307 C 202.340 137.471,202.344 147.542,202.084 149.875 C 201.828 152.182,201.525 152.495,199.781 152.253 L 198.540 152.081 198.540 153.267 C 198.540 155.791,202.444 154.262,204.072 151.101 C 204.811 149.665,204.819 149.580,204.964 140.885 L 205.109 132.117 206.128 131.971 C 206.792 131.876,207.181 131.647,207.244 131.314 C 207.334 130.848,206.996 130.803,203.379 130.803 C 200.310 130.803,199.416 130.889,199.416 131.185 M242.211 131.262 C 241.668 131.805,241.606 133.168,242.102 133.664 C 243.022 134.584,244.964 133.749,244.964 132.433 C 244.964 131.072,243.166 130.307,242.211 131.262 M279.470 131.314 C 279.532 131.638,279.887 131.858,280.440 131.916 C 281.993 132.078,282.044 132.334,282.044 140.075 C 282.044 147.818,281.954 148.321,280.574 148.321 C 279.903 148.321,279.708 148.452,279.708 148.905 C 279.708 149.473,279.903 149.489,286.861 149.489 L 294.015 149.489 294.015 148.508 C 294.015 147.968,294.098 146.917,294.200 146.172 C 294.474 144.171,293.431 144.189,292.825 146.196 C 292.320 147.867,292.070 147.960,287.956 148.000 L 284.964 148.029 284.964 144.385 L 284.964 140.741 285.718 140.552 C 286.782 140.285,290.304 140.689,290.571 141.110 C 290.694 141.302,290.796 141.821,290.798 142.263 C 290.802 142.870,290.946 143.066,291.387 143.066 C 291.935 143.066,291.971 142.871,291.971 139.854 C 291.971 136.837,291.935 136.642,291.387 136.642 C 290.916 136.642,290.803 136.837,290.803 137.647 C 290.803 138.200,290.689 138.722,290.550 138.808 C 290.054 139.115,287.038 139.341,286.011 139.148 L 284.964 138.952 284.964 135.607 L 284.964 132.263 287.701 132.263 C 291.974 132.263,292.263 132.367,292.263 133.905 C 292.263 135.936,293.283 135.734,293.555 133.650 C 293.665 132.807,293.828 131.821,293.917 131.460 L 294.078 130.803 286.726 130.803 C 279.881 130.803,279.380 130.838,279.470 131.314 M371.737 131.153 C 371.252 131.638,371.297 133.285,371.807 133.708 C 372.494 134.278,373.801 133.957,374.280 133.099 C 375.117 131.602,372.948 129.942,371.737 131.153 M314.088 133.159 L 312.993 133.737 312.993 135.769 L 312.993 137.802 311.971 138.229 C 311.408 138.465,310.949 138.866,310.949 139.122 C 310.949 139.497,311.150 139.551,311.971 139.397 L 312.993 139.205 312.993 143.601 C 312.993 147.827,313.020 148.028,313.697 148.816 C 314.761 150.052,317.305 150.025,318.295 148.766 C 319.404 147.357,319.239 147.156,317.345 147.607 C 315.882 147.956,315.620 147.264,315.620 143.045 L 315.620 139.270 317.372 139.270 C 319.111 139.270,319.124 139.264,319.124 138.422 L 319.124 137.574 317.346 137.735 L 315.568 137.896 315.657 135.319 C 315.756 132.446,315.669 132.326,314.088 133.159 M211.095 137.099 C 210.533 137.311,209.646 137.493,209.124 137.502 C 208.375 137.515,208.175 137.641,208.175 138.102 C 208.175 138.573,208.370 138.686,209.177 138.686 C 210.473 138.686,210.515 138.850,210.432 143.514 C 210.375 146.783,210.440 147.436,210.899 148.137 C 212.144 150.042,215.490 150.278,217.569 148.607 L 218.686 147.710 218.686 148.599 L 218.686 149.489 221.022 149.489 C 223.138 149.489,223.358 149.436,223.358 148.924 C 223.358 148.499,223.121 148.335,222.409 148.267 L 221.460 148.175 221.423 142.482 C 221.381 135.989,221.751 136.613,218.321 137.263 C 215.942 137.714,215.393 138.686,217.518 138.686 L 218.686 138.686 218.686 142.228 L 218.686 145.770 217.643 146.754 C 216.795 147.554,216.369 147.737,215.353 147.737 C 213.134 147.737,212.984 147.338,213.043 141.572 C 213.100 136.089,213.194 136.305,211.095 137.099 M226.058 137.197 C 223.962 137.732,223.483 138.577,225.182 138.741 L 226.131 138.832 226.131 143.504 L 226.131 148.175 225.182 148.267 C 224.470 148.335,224.234 148.499,224.234 148.924 C 224.234 149.450,224.465 149.489,227.591 149.489 C 230.718 149.489,230.949 149.450,230.949 148.924 C 230.949 148.499,230.712 148.335,230.000 148.267 L 229.051 148.175 228.970 144.293 L 228.888 140.410 229.750 139.548 C 230.897 138.401,232.841 138.331,234.071 139.393 L 234.891 140.099 234.861 144.794 L 234.832 149.489 237.124 149.489 C 239.221 149.489,239.416 149.439,239.416 148.905 C 239.416 148.455,239.221 148.321,238.566 148.321 C 237.495 148.321,237.339 147.565,237.418 142.726 C 237.463 139.928,237.383 139.184,236.969 138.552 C 235.416 136.182,231.965 135.941,229.708 138.047 L 228.905 138.795 228.905 137.719 C 228.905 136.482,228.876 136.477,226.058 137.197 M241.825 137.197 C 239.728 137.732,239.249 138.577,240.949 138.741 L 241.898 138.832 241.898 143.504 L 241.898 148.175 240.949 148.267 C 240.236 148.335,240.000 148.499,240.000 148.924 C 240.000 149.450,240.231 149.489,243.358 149.489 C 246.521 149.489,246.715 149.455,246.715 148.905 C 246.715 148.485,246.521 148.321,246.021 148.321 C 244.725 148.321,244.629 147.857,244.726 142.064 C 244.831 135.853,245.129 136.353,241.825 137.197 M251.684 137.249 C 248.653 138.624,247.423 141.340,248.181 144.991 C 249.566 151.675,259.239 151.157,260.770 144.316 C 261.986 138.882,256.865 134.899,251.684 137.249 M264.526 137.095 C 263.803 137.302,262.916 137.482,262.555 137.495 C 261.331 137.539,261.716 138.636,262.993 138.741 L 264.088 138.832 264.290 140.666 C 264.401 141.675,264.401 143.778,264.290 145.338 L 264.088 148.175 262.993 148.266 C 262.135 148.337,261.898 148.479,261.898 148.923 C 261.898 149.454,262.132 149.489,265.693 149.489 C 269.294 149.489,269.489 149.459,269.489 148.905 C 269.489 148.419,269.294 148.321,268.327 148.321 C 266.869 148.321,266.771 148.011,266.907 143.837 C 266.998 141.072,267.076 140.703,267.715 140.023 C 268.584 139.099,269.910 139.016,270.433 139.854 C 271.052 140.845,271.456 140.512,271.666 138.837 C 272.004 136.126,270.180 135.629,268.029 137.845 L 266.861 139.049 266.861 137.845 C 266.861 136.490,266.755 136.456,264.526 137.095 M297.810 137.099 C 297.248 137.311,296.427 137.493,295.985 137.502 C 294.679 137.529,294.862 138.686,296.173 138.686 C 297.471 138.686,297.518 138.855,297.518 143.504 C 297.518 148.152,297.471 148.321,296.173 148.321 C 295.377 148.321,295.182 148.436,295.182 148.905 C 295.182 149.457,295.377 149.489,298.686 149.489 C 301.995 149.489,302.190 149.457,302.190 148.905 C 302.190 148.437,301.995 148.321,301.208 148.321 L 300.226 148.321 300.030 145.903 C 299.600 140.603,300.455 138.686,303.247 138.686 C 305.725 138.686,305.985 139.267,305.985 144.804 L 305.985 149.489 308.321 149.489 C 310.437 149.489,310.657 149.436,310.657 148.924 C 310.657 148.499,310.420 148.335,309.708 148.267 L 308.759 148.175 308.613 143.635 C 308.450 138.547,308.201 137.804,306.410 137.056 C 304.378 136.207,302.933 136.506,300.511 138.277 C 299.862 138.751,299.854 138.744,299.854 137.700 C 299.854 136.513,299.575 136.431,297.810 137.099 M322.190 137.088 C 321.547 137.300,320.661 137.483,320.219 137.496 C 318.870 137.534,319.125 138.627,320.510 138.741 C 321.815 138.850,321.970 139.289,321.984 142.920 C 322.001 147.370,321.783 148.161,320.511 148.266 C 319.653 148.337,319.416 148.479,319.416 148.923 C 319.416 149.454,319.650 149.489,323.212 149.489 C 326.813 149.489,327.007 149.459,327.007 148.905 C 327.007 148.436,326.813 148.321,326.021 148.321 C 324.469 148.321,324.303 147.882,324.422 144.115 C 324.519 141.059,324.589 140.710,325.235 140.022 C 326.102 139.099,327.428 139.017,327.951 139.854 C 328.723 141.090,329.343 140.098,329.343 137.628 C 329.343 135.934,326.878 136.284,325.194 138.216 L 324.403 139.124 324.391 137.883 C 324.378 136.488,324.204 136.425,322.190 137.088 M334.360 137.070 C 329.568 139.230,328.806 146.316,333.094 148.836 C 335.564 150.288,340.911 149.603,341.389 147.773 C 341.622 146.883,341.262 146.802,339.981 147.455 C 336.994 148.978,333.876 147.447,333.274 144.161 L 333.074 143.066 337.121 143.061 C 341.995 143.056,342.045 143.034,341.801 140.982 C 341.392 137.527,337.678 135.575,334.360 137.070 M345.547 137.088 C 344.905 137.300,344.018 137.483,343.577 137.496 C 342.227 137.534,342.483 138.627,343.869 138.741 L 344.964 138.832 345.041 146.861 C 345.126 155.615,345.125 155.620,343.448 155.620 C 343.043 155.620,342.774 155.796,342.774 156.058 C 342.774 156.424,343.374 156.496,346.423 156.496 C 349.473 156.496,350.073 156.424,350.073 156.058 C 350.073 155.810,349.811 155.620,349.470 155.620 C 347.935 155.620,347.737 155.222,347.737 152.130 L 347.737 149.244 348.815 149.542 C 352.985 150.693,358.113 145.791,357.590 141.153 C 357.139 137.152,351.893 135.056,349.101 137.762 C 347.894 138.932,347.737 138.920,347.737 137.664 C 347.737 136.510,347.496 136.446,345.547 137.088 M360.657 137.197 C 358.532 137.739,358.002 138.686,359.823 138.686 C 361.118 138.686,361.168 138.862,361.168 143.401 C 361.168 147.657,360.970 148.321,359.698 148.321 C 359.027 148.321,358.832 148.452,358.832 148.905 C 358.832 149.458,359.027 149.489,362.482 149.489 C 365.899 149.489,366.131 149.453,366.131 148.923 C 366.131 148.479,365.894 148.337,365.038 148.266 C 363.956 148.176,363.941 148.158,363.694 146.595 C 362.906 141.611,365.018 137.494,367.153 139.854 C 368.056 140.851,368.463 140.589,368.511 138.978 C 368.535 138.175,368.568 137.354,368.584 137.153 C 368.673 136.046,366.088 136.583,364.785 137.943 L 363.504 139.280 363.504 137.961 C 363.504 136.450,363.540 136.460,360.657 137.197 M371.460 137.197 C 369.436 137.714,368.796 138.686,370.480 138.686 C 371.611 138.686,371.679 138.957,371.679 143.504 C 371.679 148.050,371.611 148.321,370.480 148.321 C 369.830 148.321,369.635 148.456,369.635 148.905 C 369.635 149.455,369.830 149.489,372.993 149.489 C 376.156 149.489,376.350 149.455,376.350 148.905 C 376.350 148.524,376.156 148.321,375.790 148.321 C 374.297 148.321,374.307 148.359,374.307 142.305 C 374.307 135.861,374.603 136.394,371.460 137.197 M379.875 137.154 C 376.017 139.121,377.090 143.060,381.766 144.100 C 384.760 144.766,385.623 145.649,384.794 147.197 C 383.624 149.384,378.978 148.643,378.978 146.270 C 378.978 145.304,378.880 145.109,378.394 145.109 C 377.931 145.109,377.810 145.305,377.807 146.058 C 377.805 146.580,377.725 147.482,377.629 148.063 C 377.430 149.268,377.591 149.354,380.650 149.671 C 384.321 150.052,387.153 148.224,387.153 145.475 C 387.153 143.257,386.546 142.686,383.348 141.895 C 379.751 141.007,378.828 139.828,380.623 138.415 C 382.218 137.161,385.109 138.195,385.109 140.021 C 385.109 140.535,385.270 140.730,385.693 140.730 C 386.212 140.730,386.277 140.535,386.277 138.992 L 386.277 137.254 385.182 136.950 C 383.495 136.481,381.006 136.577,379.875 137.154 M392.251 137.333 C 387.093 139.735,387.409 148.063,392.711 149.492 C 395.208 150.165,399.260 149.192,399.600 147.837 C 399.853 146.829,399.669 146.776,398.219 147.434 C 395.034 148.879,392.042 147.438,391.615 144.253 L 391.458 143.082 395.656 143.001 L 399.854 142.920 399.935 141.460 C 400.152 137.560,396.257 135.468,392.251 137.333 M255.643 138.278 C 258.952 139.849,258.979 147.025,255.680 148.281 C 251.375 149.919,248.683 140.295,252.855 138.184 C 253.819 137.696,254.462 137.718,255.643 138.278 M337.338 138.089 C 338.251 138.436,338.875 139.378,339.135 140.803 L 339.335 141.898 336.237 141.898 C 332.771 141.898,332.788 141.911,333.612 139.851 C 334.297 138.140,335.712 137.471,337.338 138.089 M395.870 138.226 C 396.792 138.703,397.372 139.788,397.372 141.036 L 397.372 141.898 394.414 141.898 L 391.456 141.898 391.622 140.657 C 391.924 138.404,393.961 137.239,395.870 138.226 M353.229 139.278 C 355.546 140.690,355.603 145.246,353.329 147.269 C 352.320 148.166,350.138 148.224,348.905 147.387 L 347.883 146.694 347.801 143.604 L 347.718 140.515 348.760 139.601 C 350.028 138.487,351.731 138.364,353.229 139.278 " stroke="none" fill="#000000" fill-rule="evenodd"></path></g></svg>